/* XPM */

static char * a_xpm[] = {
"20 20 6 1",
" 	c #FFFFFFFFFFFF",
".	c #000000000000",
"X	c #BABAC1C1FFFF",
"o	c #00000000FFFF",
"O	c #7D7D9797FFFF",
"+	c #1A1AB3B32020",
"                    ",
"       ......       ",
"     ..      ..     ",
"    .       XXX.    ",
"   .       oooX .   ",
"  .        XooX  .  ",
"  .       XoXo   .  ",
" .       XoX      . ",
" .       OX       . ",
" .      + +       . ",
" .       + ++ ++ +. ",
" .      + +       . ",
" .                . ",
"  .              .  ",
"  .              .  ",
"   .            .   ",
"    .          .    ",
"     ..      ..     ",
"       ......       ",
"                    "};
