/* XPM */
static char * b_xpm[] = {
"20 20 5 1",
" 	c #FFFFFFFFFFFF",
".	c #000000000000",
"X	c #BEFBC30BFFFF",
"o	c #00000000FFFF",
"O	c #79E79658FFFF",
"                    ",
" .................. ",
" .             XXX. ",
" .            oooX. ",
" .            XooX. ",
" .           XoXo . ",
" .          XoX   . ",
" .          OX    . ",
" .                . ",
" .                . ",
" .                . ",
" .                . ",
" .                . ",
" .                . ",
" .                . ",
" .                . ",
" .                . ",
" .                . ",
" .................. ",
"                    "};
