/* XPM */
static char * bd_xpm[] = {
"20 20 3 1",
" 	c #FFFF00000000",
".	c #FFFFFFFFFFFF",
"X	c #000000000000",
"                    ",
" .................. ",
" .................. ",
"XXXXXXXXXXXXXXXXXXXX",
"XXXXXXXXXXXXXXXXXXXX",
" .................. ",
" .................. ",
" .................. ",
" .................. ",
"XXX..XXXX..XXXX..XXX",
"XXX..XXXX..XXXX..XXX",
" .................. ",
" .................. ",
" .................. ",
" .................. ",
".XX..XX..XX..XX..XX.",
".XX..XX..XX..XX..XX.",
" .................. ",
" .................. ",
"                    "};
