/* XPM */
static char * ccw_xpm[] = {
"20 20 5 1",
" 	c #FFFFFFFFFFFF",
".	c #B6DAB2CAB6DA",
"X	c #000000000000",
"o	c #79E77DF779E7",
"O	c #618565956185",
"                    ",
"     .              ",
"     X  ..          ",
"    .XXXXXXo        ",
"    XXXXXXXXXo      ",
"   .XXo.   .XXX     ",
"   XXXXXO    XXo    ",
"   XX...      XX    ",
"  ..          .Xo   ",
"               XX.  ",
"   .           XX.  ",
"  XX           XX   ",
"  oXo         .Xo   ",
"   XX         XX    ",
"   oXX       XXo    ",
"    XXX.   .XXX     ",
"     oXXXXXXXo      ",
"       XXXXo        ",
"        ..          ",
"                    "};
