/* XPM */
static char * co_xpm[] = {
"20 20 5 1",
" 	c #000000000000",
".	c #FFFF00000000",
"X	c #00000000FFFF",
"o	c #FFFFFFFF0000",
"O	c #0000FFFF0000",
"                    ",
" .........XXXXXXXXX ",
" .........XXXXXXXXX ",
" .........XXXXXXXXX ",
" .........XXXXXXXXX ",
" .........XXXXXXXXX ",
" .........XXXXXXXXX ",
" .........XXXXXXXXX ",
" .........XXXXXXXXX ",
" .........XXXXXXXXX ",
" oooooooooOOOOOOOOO ",
" oooooooooOOOOOOOOO ",
" oooooooooOOOOOOOOO ",
" oooooooooOOOOOOOOO ",
" oooooooooOOOOOOOOO ",
" oooooooooOOOOOOOOO ",
" oooooooooOOOOOOOOO ",
" oooooooooOOOOOOOOO ",
" oooooooooOOOOOOOOO ",
"                    "};
