/* XPM */
static char * cp_xpm[] = {
"20 20 7 1",
" 	c #FFFFFFFFFFFF",
".	c #000000000000",
"X	c #B6DAB2CAB6DA",
"o	c #FFFF82078617",
"O	c #FFFF00000000",
"+	c #79E77DF779E7",
"@	c #618565956185",
"      .             ",
"      .X            ",
"     X..    ooO     ",
" XXXX...XX++ OOO    ",
"  .........    OO   ",
"   ......+      Oo  ",
"    X...+        O  ",
"    X...++       O  ",
"    .....+     O O o",
"   @..  ..X     OOO ",
"  X@+    X@X .  OO  ",
"             .X O   ",
"            X..o    ",
"        XXXX...XX++ ",
"         .........  ",
"          ......+   ",
"           X...+    ",
"           .....++  ",
"          @..  ..+  ",
"         X@+    X+X "};
