/* XPM */
static char * cw_xpm[] = {
"20 20 5 1",
" 	c #FFFFFFFFFFFF",
".	c #B6DAB2CAB6DA",
"X	c #000000000000",
"o	c #79E77DF779E7",
"O	c #618565956185",
"                    ",
"              .     ",
"          ..  X     ",
"        oXXXXXX.    ",
"      oXXXXXXXXX    ",
"     XXX.   .oXX.   ",
"    oXX    OXXXXX   ",
"    XX      ...XX   ",
"   oX.          ..  ",
"  .XX               ",
"  .XX           .   ",
"   XX           XX  ",
"   oX.         oXo  ",
"    XX         XX   ",
"    oXX       XXo   ",
"     XXX.   .XXX    ",
"      oXXXXXXXo     ",
"        oXXXX       ",
"          ..        ",
"                    "};
