/* XPM */
static char * fi_xpm[] = {
"20 20 3 1",
" 	c #FFFF00000000",
".	c #000000000000",
"X	c #FFFFFFFFFFFF",
"                    ",
" .X.X.X.X.XXXX.XXXX ",
" X.X.X.X.XX.XXXX.XX ",
" .X.X.X.X.XXX.XXXX. ",
" X.X.X.X.X.XXXX.XXX ",
" .X.X.X.X.XX.XXXX.X ",
" X.X.X.X.XXXXX.XXXX ",
" .X.X.X.X.X.XXXX.XX ",
" X.X.X.X.XXXX.XXXX. ",
" .X.X.X.X..XXXX.XXX ",
" ..X..X..X......... ",
" ..X..X..XXXXXXXXXX ",
" X..X..X........... ",
" X..X..X..XXXXXXXXX ",
" .X..X..X.......... ",
" .X..X..X.XXXXXXXXX ",
" ..X..X..X......... ",
" ..X..X..XXXXXXXXXX ",
" X..X..X........... ",
"                    "};
