/* XPM */
static char * fx_xpm[] = {
"20 20 8 1",
" 	c #FFFF00000000",
".	c #FFFFA3A3A3A3",
"X	c #FFFFFFFFFFFF",
"o	c #FFFFFFFF0000",
"O	c #FFFFD7D70000",
"+	c #C1C1C6C6FFFF",
"@	c #00000000FFFF",
"#	c #8E8E9999FFFF",
"       .XXXXXXXXXXXX",
" oooooO  XX++XXXXXXX",
".Ooooooo .X@@@XXXXXX",
"X ooooooO X+#@@XXXXX",
"X OooooooO XXX@#X#XX",
"X OooooooO XXXX@#+XX",
"X ooooooO XXX+@@@+XX",
".Ooooooo .XXXXX@@+XX",
" oooooO  XXXXXXX@+XX",
"       .XXXXXXXXX+XX",
"XXXXXXXXXXXX.       ",
"XXXXXXXXXXX  oooooo ",
"XXXXXXXXXX. ooooooO.",
"XXXXXXXXXX Ooooooo X",
"XXXXXXXXX OooooooO X",
"XXXXXXXXX OooooooO X",
"XXXXXXXXXX Ooooooo X",
"XXXXXXXXXX. ooooooO.",
"XXXXXXXXXXX  Oooooo ",
"XXXXXXXXXXXX.       "};
