/* XPM */
static char * fy_xpm[] = {
"20 20 8 1",
" 	c #FFFFFFFFFFFF",
".	c #FFFF00000000",
"X	c #FFFFA3A3A3A3",
"o	c #FFFFFFFF0000",
"O	c #FFFFD7D70000",
"+	c #C1C1C6C6FFFF",
"@	c #00000000FFFF",
"#	c #8E8E9999FFFF",
" ..X    X..         ",
" .oO....Oo. ++      ",
" .oooOOooo. @@@     ",
" .oooooooo. +#@@    ",
" .oooooooo.    @# # ",
" .oooooooo.     @#+ ",
" .OooooooO.   +@@@+ ",
" X.oooooo.X     @@+ ",
"  ..OooO..       @+ ",
"   X.OO.X     ..  + ",
"     ..     X.OO.X  ",
"           ..OooO.. ",
"          X.oooooo.X",
"          .OooooooO.",
"          .oooooooo.",
"          .oooooooo.",
"          .oooooooo.",
"          .oooOOooo.",
"          .oO....Oo.",
"          ..X    X.."};
