/* XPM */
static char * i_xpm[] = {
"20 20 6 1",
" 	c #00000000FFFF",
".	c #80808080FFFF",
"X	c #FFFFFFFFFFFF",
"o	c #C0C0C0C0FFFF",
"O	c #6C6C7575FFFF",
"+	c #40404040FFFF",
"                    ",
"          .XXo      ",
"         OXXXX.     ",
"         oXXXXo     ",
"         .XXXX      ",
"          .oX.      ",
"                    ",
"         .oXX+      ",
"       oXXXXo       ",
"        .XXXo       ",
"         XXX        ",
"        .XXX        ",
"        oXXo        ",
"        oXX.        ",
"       .XXX         ",
"       .XXo .o.     ",
"       oXXo.Xo      ",
"       oXXXXo       ",
"        .XXo +      ",
"                    "};
