/* XPM */
static char * li_xpm[] = {
"20 20 8 1",
" 	c #0000FFFFFFFF",
".	c #28A2AEBAFFFF",
"X	c #000000000000",
"o	c #BEFBBEFBBEFB",
"O	c #79E77DF779E7",
"+	c #FFFFFFFFFFFF",
"@	c #79E765951861",
"#	c #FFFFC30B30C2",
"     ...   ...      ",
"XXooOo+OXXXO++OooXX ",
"X+ooo++++Xoo++++++@ ",
"X+oooOO++OooXX++++@ ",
"X+oXO++O+OoX++OOO+@ ",
"X+oooOO++OooXX++++@ ",
"X+oXO++O+OoX++OOO+@ ",
"X+oooOO++OooXX++++@ ",
"X+oXO++O+OoX++OOO+@ ",
"X+oooOO++OooXX++++@ ",
"X+oXO++O+OoX++OOO+@ ",
"X+oooOO++OooXX++++@ ",
"X+oXO++O+OoX++OOO+@ ",
"X+oooOO++OooXX++++@ ",
"X+oXO++O+OoX++OOO+@ ",
"X+ooo++++Ooo++++++@ ",
"X+oooOOO+OoOOOo+++@ ",
"XOOO####OOO####OOO@ ",
"X########@########@ ",
"XXXXXXXOXXXOXXXXXXX "};
