/* XPM */
static char * mk_xpm[] = {
"20 20 10 1",
" 	c #FFFFFFFFFFFF",
".	c #000000000000",
"X	c #B6DAB2CAB6DA",
"o	c #FFFF82078617",
"O	c #FFFF00000000",
"+	c #79E77DF779E7",
"@	c #618565956185",
"#	c #BEFBBEFBBEFB",
"$	c #FFFF92488E38",
"%	c #FFFFC30B30C2",
"      .             ",
"      .X            ",
"     X..    ooO     ",
" XXXX...XX++ OOO    ",
"  .........    OO   ",
"   ......+      Oo  ",
"    X...+        O  ",
"    X...++       O  ",
"    .....+     O O o",
"   @..  ..X     OOO ",
"  X@+    X@X    OO  ",
"          ... ..O   ",
"       ...#  .#$ ...",
"       .###+ +#+   .",
"       .#++  +# ++ .",
"       .###+ +#+   .",
"       .#++  +# ++ .",
"       .###  +#    .",
"       .##...+...  .",
"       ...%%%.%%%..."};
