/* XPM */
static char * mv_xpm[] = {
"20 20 8 1",
" 	c white",
".	c gray75",
"X	c gray90",
"o	c #B6DAB2CAB6DA",
"O	c gray80",
"+	c #618565956185",
"@	c black",
"#	c #79E77DF779E7",
"      .             ",
"      .X            ",
"      ..            ",
" XXXX..oXX.O        ",
"  ......o..XX       ",
"   ......O XXX      ",
"    o....OX XX      ",
"    o...oOOX XO     ",
"    .....oX+ XXO    ",
"   O.XXXX.XX+ XO    ",
"  X.OXOX X.XX@XXo   ",
"   XX XoXXXXX@oXXo  ",
"   XXX XXXXXo@@XXXo ",
"    XX X#ooo@@@oo## ",
"     OX X@@@@@@@@@  ",
"      XX X@@@@@@#   ",
"       O XXo@@@#    ",
"       OX X@@@@@##  ",
"        OX+@@  @@#  ",
"         o+#    o#o "};
