/* XPM */
static char * pa_xpm[] = {
"20 20 6 1",
" 	c steelblue3",
".	c gray85",
"X	c pink",
"o	c red",
"O	c pink3",
"+	c white",
"                    ",
" ........XXXX...... ",
" oooooXOOooooOX.... ",
" .OoooXoX.XOOoo.... ",
" .XooooX....Xooo... ",
" .XoooO......XooO.. ",
" ..oooX.......ooo.. ",
" ..ooo........ooo.. ",
" ..oooX.......ooo.. ",
" ..oooO......XooO.. ",
" ..ooooX....Xooo... ",
" ..oooXoX.XOOoo.... ",
" ..oooXOOooooOX.... ",
" ..ooo...XXXX...... ",
"   ooo              ",
"+++ooo++++++++++++++",
"++XoooX+++++++++++++",
"++OoooO+++++++++++++",
"XoooooooX+++++++++++",
"++++++++++++++++++++"};
