/* XPM */
static char * pl_xpm[] = {
"20 20 7 1",
" 	c #A2A2B5B5CDCD",
".	c #00000000FFFF",
"X	c #3D3DC4C4FFFF",
"o	c #0000FFFFFFFF",
"O	c #000000000000",
"+	c #FFFFFFFFFFFF",
"@	c #79797D7D7979",
"    ....   ....     ",
"Xo..oooo.O.Xooo..OO ",
"OooooooooOXXoooooX. ",
"Ooooo.XooOXXo.oooX. ",
"OoX.Xoo.oOX.XoX.oX. ",
"Ooooo.XooOXXo.oooX. ",
"OoX.Xoo.oOX.XoX.oX. ",
"Ooooo.XooOXXo.oooX. ",
"OoX.Xoo.oOX.XoX.oX. ",
"Ooooo.XooOXXo.oooX. ",
"OoX.Xoo.oOX.XoX.oX. ",
"Ooooo.XooOXXo.oooX. ",
"OoX.Xoo.oOX.XoX.oX. ",
"Ooooo.XooOXXo.oooX. ",
"OoX.Xoo.oOX.XoX.oX. ",
"OooooooooOXXoooooX. ",
"Oooo....oOX....ooX. ",
"OX..++++.O.++++..X. ",
" ++++++++.++++++++X ",
"OOOOOOO@OOO@OOOOOO  "};
