/* XPM */
static char * pm_xpm[] = {
"20 20 9 1",
" 	c #000000000000",
".	c #808080808080",
"X	c #FFFF00000000",
"o	c #FFFFFFFFFFFF",
"O	c #C0C0C0C0C0C0",
"+	c #FFFFB7B7C1C1",
"@	c #00000000FFFF",
"#	c #B3B3CACAFFFF",
"$	c #7F7F8E8EFFFF",
"     .     XXXXXXXXX",
"     o     XXXXXXXXX",
"    OoO    ++XXXXXXX",
"    oOo   Oooo+XXXXX",
"   .o.o.   XXooX+XXX",
"   Oo oO   XXXo+oXXX",
"  .ooooo.  X+X+ooXXX",
"  Oo   oO  XX+oooXXX",
"  o.   .o  XXXXX+XXX",
".ooo   ooo.@@@@@@@@@",
"           ooooo#@@@",
"XXXXXXXXX@@@o$@$$#@@",
"XXXXXXXXX@@@o$@@@o$@",
"XXXXXXXXX@@@o$@@$o@@",
"XXXXXXXXX@@@oooo#@@@",
"XXXXXXXXX@@@o$@@$o@@",
"XXXXXXXXX@@@o$@@@o$@",
"XXXXXXXXX@@@o$@$$#@@",
"XXXXXXXXX@@ooooo#@@@",
"XXXXXXXXX@@@@@@@@@@@"};
