/* XPM */
static char * pn_xpm[] = {
"20 20 3 1",
" 	c white",
".	c tan",
"X	c beige",
"       .. ..        ",
"    .. .. ..        ",
"    .. .. ..        ",
"    .. .. ..        ",
" .. .. .. ..        ",
" .. .. .. ..        ",
" .. .. .. ..        ",
" .. ........    ..  ",
" ...........   ...  ",
" ...........  ....  ",
"  .......... ....   ",
"  ..........X...    ",
"  ..............    ",
"  .............     ",
"  ............      ",
"   ..........       ",
"   ..........       ",
"    ........        ",
"     .......        ",
"     .......        "};
