/* XPM */
static char * pu2_xpm[] = {
"20 20 4 1",
" 	c #FFFFFFFFFFFF",
".	c #00000000FFFF",
"X	c #000000000000",
"o	c #28A2AEBAFFFF",
"       .....        ",
"       .....        ",
"       .....        ",
"       .....        ",
"       .....        ",
"       .....        ",
"       .....        ",
"       .....        ",
"XXXXXXXXXXXXXXXXXXXX",
"       ooooo        ",
"       ooooo        ",
"       ooooo        ",
"  ooooooooooooooo   ",
"   ooooooooooooo    ",
"    ooooooooooo     ",
"     ooooooooo      ",
"      ooooooo       ",
"       ooooo        ",
"        ooo         ",
"         o          "};
