/* XPM */
static char * pz_xpm[] = {
"20 20 7 1",
" 	c #B0B0FFFF4C4C",
".	c #C0C0C0C0C0C0",
"X	c #000000000000",
"o	c #FFFFFFFF0000",
"O	c #7F7F7F7F0000",
"+	c #B2B2BFBF1515",
"@	c #808080808080",
"      .X X.         ",
"        X    XXX.   ",
"       XoX. XoooX.  ",
"      XXooX OooooX  ",
"        +ooXoooo+@  ",
".   X   Xoo+ooooX   ",
"X  X@.  Ooooo@XX    ",
" X@ooXOOoooooX     .",
".@Xooo+oooooo.X   .X",
"X  Xoooooooooo.X .X ",
"    X+ooooOXXooo@X  ",
"     XoooO   XoX  X ",
"  XXO+oooX    X    X",
" XooooOooX   O     .",
" XoooX +o+XO       X",
" X+ooX Xoo@       X ",
"  XX@  .@X       X  ",
"        X        X  ",
"      .X.O  XX    . ",
"     .X   OX  X   XX"};
