/* XPM */
static char * r_xpm[] = {
/* columns rows colors chars-per-pixel */
"40 40 8 1",
" 	c red",
".	c #FFA3A3",
"X	c gray100",
"o	c yellow",
"O	c #C1C6FF",
"+	c gold",
"@	c blue",
"#	c #8E99FF",
/* pixels */
"            ..XXXXXXXXXXXXXXXXXXXXXXXXXX",
"            ..XXXXXXXXXXXXXXXXXXXXXXXXXX",
"  oooooooooo    XXXXXXOOOOXXXXXXXXXXXXXX",
"  oooooooooo    XXXXXXOOOOXXXXXXXXXXXXXX",
"..++oooooooooooo..XXXX@@@@@@XXXXXXXXXXXX",
"..++oooooooooooo..XXXX@@@@@@XXXXXXXXXXXX",
"XX  oooooooooooo  XXXXOO##@@@@XXXXXXXXXX",
"XX  oooooooooooo  XXXXOO##@@@@XXXXXXXXXX",
"XX  ++oooooooooo  XXXXXXXXXX@@##XX##XXXX",
"XX  ++oooooooooo  XXXXXXXXXX@@##XX##XXXX",
"..++oooooooooooo..XXXXXXXXXXXX@@##OOXXXX",
"..++oooooooooooo..XXXXXXXXXXXX@@##OOXXXX",
"  oooooooooo    XXXXXXXXXXOO@@@@@@OOXXXX",
"  oooooooooo    XXXXXXXXXXOO@@@@@@OOXXXX",
"            ..XXXXXXXXXXXXXXXX@@@@OOXXXX",
"            ..XXXXXXXXXXXXXXXX@@@@OOXXXX",
"XXXXXXXXXXXXXXXXXXXXXXXXXXXXXXXX@@OOXXXX",
"XXXXXXXXXXXXXXXXXXXXXXXXXXXXXXXX@@OOXXXX",
"XXXXXXXXXXXXXX                ..XXOOXXXX",
"XXXXXXXXXXXXXX                ..XXOOXXXX",
"XXXXXXXXXXXXXX  oooooooooooooo    XXXXXX",
"XXXXXXXXXXXXXX  oooooooooooooo    XXXXXX",
"XXXXXXXXXXXXXX  oooooooooooooooo  ..XXXX",
"XXXXXXXXXXXXXX  oooooooooooooooo  ..XXXX",
"XXXXXXXXXXXXXX..++oooooooooooooooo  XXXX",
"XXXXXXXXXXXXXX..++oooooooooooooooo  XXXX",
"XXXXXXXXXXXXXXXX  oooooooooooooooooo  XX",
"XXXXXXXXXXXXXXXX  oooooooooooooooooo  XX",
"XXXXXXXXXXXXXXXX  ++oooooooooooooooo  XX",
"XXXXXXXXXXXXXXXX  ++oooooooooooooooo  XX",
"XXXXXXXXXXXXXXXX  ++oooooooooooooooo  XX",
"XXXXXXXXXXXXXXXX  ++oooooooooooooooo  XX",
"XXXXXXXXXXXXXXXX  oooooooooooooooo  XXXX",
"XXXXXXXXXXXXXXXX  oooooooooooooooo  XXXX",
"XXXXXXXXXXXXXX..++oooooooooooooo  ..XXXX",
"XXXXXXXXXXXXXX..++oooooooooooooo  ..XXXX",
"XXXXXXXXXXXXXX  oooooooooooooo    XXXXXX",
"XXXXXXXXXXXXXX  oooooooooooooo    XXXXXX",
"XXXXXXXXXXXXXX                ..XXXXXXXX",
"XXXXXXXXXXXXXX                ..XXXXXXXX"};
