/* XPM */
static char * s_xpm[] = {
"20 20 6 1",
" 	c #FFFFFFFFFFFF",
".	c #1861B2CA2081",
"X	c #618565956185",
"o	c #000000000000",
"O	c #B6DAB2CAB6DA",
"+	c #79E77DF779E7",
"   .                ",
"   .                ",
"   .                ",
"   .  XooXO         ",
"   . ooO Oo+        ",
"   .OO     o        ",
"   .o      o        ",
"   XO      o        ",
"  .o.     Oo        ",
"   o      O+        ",
"  . .     o       ..",
"         o+     ..  ",
"        ++    ..    ",
"       +O   ..      ",
"      O+  ..        ",
"      o ..          ",
"     oO.            ",
". .oXO              ",
" .X.                ",
". .                 "};
