/* XPM */
static char * tg_xpm[] = {
"20 20 5 1",
" 	c white",
".	c #1A1AB3B32020",
"X	c yellow2",
"o	c orange",
"O	c gold",
"                   .",
"       Xoo         .",
"        ooX        .",
"         oo        .",
"         ooX       .",
"        OooO       .",
"        oXoo       .",
"       Oo ooX      .",
"       O   oo      .",
"      Xo   XoX     .",
"      oO   Xoo     .",
"     Xo     XoX    .",
"     OX     XoO    .",
"    XoOOOOOOXoo    .",
"    OooooooooooX   .",
"   XoO       XoO   .",
"   OoO        ooX  .",
"  Xoo         OoOX .",
" XooOO       OoooOX.",
"OoooooO     Xoooooo."};
