/* XPM */
static char * ti_xpm[] = {
"20 20 6 1",
" 	c white",
".	c #1A1AB3B32020",
"X	c palegreen",
"o	c yellowgreen",
"O	c green2",
"+	c green",
"                   .",
"       X..         .",
"        ..X        .",
"         ..        .",
"         ..X       .",
"        o..o       .",
"        .X..       .",
"       o. ..X      .",
"       o   ..      .",
"      X.   X.X     .",
"      .o   X..     .",
"     X.     X.X    .",
"     oX     X.o    .",
"    X.OOOOOOX..    .",
"    o..........X   .",
"   X.O       X.o   .",
"   +.O        ..X  .",
"  X..         o.oX .",
" X..oO       O...OX.",
"O.....O     X......."};
