/* XPM */
static char * uj_xpm[] = {
"20 20 6 1",
" 	c #B0B0FFFF4C4C",
".	c #7F7F7F7F0000",
"X	c #000000000000",
"o	c #8484B3B31111",
"O	c #C0C0C0C0C0C0",
"+	c #808080808080",
"    ..   Xo         ",
".       Xo    ..    ",
" .     oXX   XXX.   ",
" X    oXXXX oXXXX   ",
".X     ooXXXoXXXX   ",
"    X    XXXXXXXo   ",
"   XX    XXXXXoo    ",
". XXX.  XXXXXX     O",
" X.XXXXXXXXXXXX   OX",
"X  oXXXXXXXXXXXX OX ",
"    oXXXXX+oXXXX+X  ",
"     XXXX+   XXX  X ",
"  oXXXXXXo    X    X",
" XXXXXoXXo   o     O",
" XXXXX XXXXo     ooX",
" oXXX  .XXX      oX ",
"  oXo   oX       o  ",
"        X        X  ",
"      OXX  oXX    O ",
"     OX .X X  X   XX"};
