/* XPM */
static char * w_xpm[] = {
"20 20 5 1",
" 	c white",
".	c black",
"X	c #BEFBC30BFFFF",
"o	c blue",
"O	c #79E79658FFFF",
"                    ",
"                .   ",
"             XXX.   ",
"            oooX.   ",
"            XooX.   ",
" .         XoXo .   ",
"  ..      XoX    .  ",
"    .     OX     .  ",
"     ..          .  ",
"       ..        .  ",
"         .       .  ",
"          ..     .  ",
"           ..     . ",
"         ..       . ",
"      ...         . ",
"    ..            . ",
"  ....            . ",
"      ........    . ",
"              ..... ",
"                    "};
