/* XPM */
static char * xcircuit_xpm[] = {
/* width height num_colors chars_per_pixel */
"69 79 10 1",
/* colors */
" 	c #ff0000",
".	c #efefc7",
"X	c gray40",
"o	c black",
"O	c gray80",
"+	c gray50",
"@	c #b88d5c",
"#	c white",
"$	c gray90",
"%	c #eaeaea",
/* pixels */
"                                                                     ",
" ................... .................... .................... ..... ",
" ................... .................... .................... ..... ",
" ...X..X...oo..XX... ....XX.X.o.oo.OX.... .....+.o.+oOo....... ..... ",
" ...X.X..X.Oo.XX.... ....XX..X..oo.X..... .....+Oo.o.Oo....... ..... ",
" ................... .................... .................... ..... ",
" ................... .................... .................... ..... ",
"                                                                     ",
" @@@ #########$###########$############$############$###########$### ",
" @@@ #########$###########$############$############$###########$### ",
" @@@ #########$###########$############$############$###########$### ",
" @@@ #########$###########$############$############$###########$### ",
" @@@ ###OX+###$##XX####Ooo$############$############$#######o###$### ",
" @@@ ####Oo###$#XX####o+oooo###########$############$#######o###$### ",
" @@@ #####oo##$+o####oo###$o+##Oo######$############$##+o###o###$### ",
" @@@ ######o+#$o####$o####$#####O######$############$##%+##ooo##$### ",
" @@@ #######o#o#####oo####$#####o##oOoo$#+ooX##o####o##%X##OoO##$### ",
" @@@ ########oo#####oO####$####oo##oo#oXOo+#+o#o####o##oo###o###$### ",
" @@@ #######o++#####o+####$####%o##o%##$o%#####o####o##Oo###o###$### ",
" @@@ ######Oo#oo####$o####$#####o##o###$o######o####o##Oo###o###$### ",
" @@@ %%%%%Oo$$ oO%%%%oo%%%Oo+%%%o$$o$$$ X$%%%$$oO$$$o%%Oo%%%o%%%$%%% ",
" @@@ #####oX##$#oX###$oo$$Xo###Oo##o###$%o+#+o#+o##oo##Oo###o%OX$### ",
" @@@ ####oo###$#OoX####oooo####ooo#o###$#OoooO##oooOo##ooo##OoX#$### ",
" @@@ #########$###########$############$############$###########$### ",
" @@@ #########$###########$############$############$###########$### ",
" @@@ #########$###########$############$############$###########$### ",
" @@@ ######+$#$###########$############$############$###########$### ",
" @@@ ######oo$$###########$############$############$###########$### ",
" @@@ ######o#+o$##########$############$############$###########$### ",
" @@@ ######o##$oo#########$############$############$###########$### ",
" @@@ ######o##$#Oo+#######%############$############$###########$### ",
" @@@ ######o##$###+oO#####%############$############$###########$### ",
" @@@ ######o##$####$XoO###%###########+o###o####o###$###########$### ",
" @@@ %%%%%%o%%O$$%%%%%oo%%Ooo%%%%%%%%%oo%%%oo%%%oo%%O%%%%%$$$$%%O%%% ",
" @@@ ######o##$########$o+o##o#######Ooo$#o#o##o#o##$#Oo+#######+XO# ",
" @@@ ooooooo##$##########oo##ooooooo#o#$o#o#oo#o##ooooooooooooooX#X# ",
" ... ######o##$########o+#oooO#####o$o#$ooO##oo$####$#Oo+#######OXO# ",
" @@@ ######o##$######oo###$OO######+o##$+o###+o#####$##o########$### ",
" @@@ ######o##$####+oO####$############$############$##o########$### ",
" @@@ ######o##$##+o+######$############$############$##o########$### ",
" @@@ ######o##$Oo+########$############$############$##o########$### ",
" @@@ ######o#O+o$#########$############$############$##o########$### ",
" @@@ ######ooo$###########$############$############$##o########$### ",
" @@@ ######o$#$###########$############$############$##o########$### ",
" @@@ #########$###########$############$############$##o########$### ",
" @@@ #########$###########$############$#########%%%$%%o%%%%%%##$### ",
" @@@ $$$$$$$$$ $$$$$$$$$$$ $$$$$$$$$$$$ $$$$$$$$$ooooooooooooo$$ $$$ ",
" @@@ #########$###########$############$############$###########$### ",
" @@@ #########$###########$############$############$#OOO#######$### ",
" @@@ #########$###########$############$##########$+ooooooo+$###$### ",
" @@@ #########$###########$############$#########oo#$##o####oo##$### ",
" @@@ #########$###########$############$############$##o########$### ",
" @@@ #########$###########$############$############$##o########$### ",
" @@@ #########$###########$############$############$##o########$### ",
" @@@ #########$###########$############$############$##o########$### ",
" @@@ #########$###########$############$############$##o########$### ",
" @@@ #########$###########$############$############$##o########$### ",
" @@@ #########$###########$############$############$##o########$### ",
" @@@ #########$###########$############$############$##o########$### ",
" @@@ $$$$$$$$$ $$$$$$$$$$$ $$$$$$$$$$$$ $$$$$$$$$$$$O$$o$$$$$$$$ $$$ ",
" @@@ #########$###########$############$#########ooooooooooooo##$### ",
" @@@ #########$###########$############$############$###########$### ",
" @@@ #########$###########$############$############$###########$### ",
" @@@ #########$###########$############$############ooooooo#####$### ",
" @@@ #########$###########$############$############$###########$### ",
" @@@ #########$###########$############$############$###########$### ",
" @@@ #########$###########$############$############$#ooo#######$### ",
" @@@ #########$###########$############$############$###########$### ",
" ... #########$###########$############$############$###########$### ",
" ...                                                                 ",
" ... .@@@@@@@@@@@@@@@@@@@@@@@@@@@@@@@@.@@@@@@@@@@@@@@@@@@@@@@@@@@@@@ ",
" ... .@@@@@@@@@@@@@@@@@@@@@@@@@@@@@@@@.@@@@@@@@@@@@@@@@@@@@@@@@@@@@@ ",
" ... .@@@@@@@@@@@@@@@@@@@@@@@@@@@@@@@@.@@@@@@@@@@@@@@@@@@@@@@@@@@@@@ ",
"                                                                     ",
" ......................... ......................................... ",
" ..o.o.o...o......X..X..o. ......................................... ",
" ...oooo.X.o.oo.o.X.XX..o. ......................................... ",
" ......................... ......................................... ",
"                                                                     "};
