/* XPM */
static char * yp_xpm[] = {
"20 20 7 1",
" 	c #0000FFFFFFFF",
".	c #79E765951861",
"X	c #000000000000",
"o	c #FFFFFFFF0000",
"O	c #FFFFC30B30C2",
"+	c #FFFFFFFFFFFF",
"@	c #79E77DF779E7",
"    ....   ....     ",
"XX..oooo.X.Oooo..XX ",
"X+oooooooXOOoooooO. ",
"X+ooo.oooXOOo.oooO. ",
"X+o.ooo.oXO.ooo.oO. ",
"X+ooo.oooXOOo.oooO. ",
"X+o.ooo.oXO.ooo.oO. ",
"X+ooo.oooXOOo.oooO. ",
"X+o.ooo.oXO.ooo.oO. ",
"X+ooo.oooXOOo.oooO. ",
"X+o.ooo.oXO.ooo.oO. ",
"X+ooo.oooXOOo.oooO. ",
"X+o.ooo.oXO.ooo.oO. ",
"X+ooo.oooXOOo.oooO. ",
"X+o.ooo.oXOOooo.oO. ",
"X+oooooooXOOoooooO. ",
"X+oo....oXO....ooO. ",
"XO..++++.X.++++..O. ",
"X++++++++.++++++++. ",
"XXXXXXX@XXX@XXXXXXX "};
