/* XPM */
static char * z4_xpm[] = {
"20 20 7 1",
" 	c #FFFFFFFFFFFF",
".	c #666666666666",
"X	c #D9D9D9D9D9D9",
"o	c #000000000000",
"O	c #A2A2B5B5CDCD",
"+	c #79797D7D7979",
"@	c #20208989B3B3",
"                    ",
" .XX            XX. ",
" Xooo.O      O+oooX ",
" XooOX        XOooX ",
"  oOoX        XoOo  ",
"  .XXoX      XoXX.  ",
"  O  XoX    XoX  O  ",
"      Xo    oX      ",
"        O  O        ",
"         XX         ",
"         XX         ",
"        O  O        ",
"      Xo    oX      ",
"  O  XoX    XoX  O  ",
"  .XXoX      XoXX.  ",
"  oOoX        XoOo  ",
" Xoo@X        XOooX ",
" Xooo.O      O.oooX ",
" .XX            XX. ",
"                    "};
