/* XPM */
static char * z5_xpm[] = {
"20 20 6 1",
" 	c #000000000000",
".	c #FFFFFFFFFFFF",
"X	c #79797D7D7979",
"o	c #A2A2B5B5CDCD",
"O	c #D9D9D9D9D9D9",
"+	c #666666666666",
" ...................",
"..X.............XX..",
".X o............o X.",
"..o O..........O o..",
"...O O..o..o..O O...",
"....O O. .. .O O....",
".....O O .. O O.....",
"......O  OO  O......",
"....o    OO    o....",
".......OOooOO.......",
".......OOooOO.......",
"....o    OO    o....",
"......O  OO  O......",
".....O O .. O O.....",
"....O O. .. .O O....",
"...O O..o..o..O O...",
"..o O..........O o..",
".+ o............o X.",
"..X..............X..",
"...................."};
